<svg xmlns="http://www.w3.org/2000/svg" fill="none" viewBox="0 0 48 58"><path fill="#50A359" d="M41.44 18.38H6.56a5.82 5.82 0 0 0-5.81 5.8v11.63a3.88 3.88 0 0 0 3.88 3.88v13.56a3.88 3.88 0 0 0 3.87 3.88h7.75a3.88 3.88 0 0 0 3.88-3.88V30h-3.88v23.25H8.5V35.81H4.62V24.2a1.94 1.94 0 0 1 1.94-1.94h34.88a1.94 1.94 0 0 1 1.94 1.94v11.6H39.5v17.44h-7.75V30h-3.88v23.25a3.88 3.88 0 0 0 3.88 3.88h7.75a3.88 3.88 0 0 0 3.88-3.88V39.69a3.88 3.88 0 0 0 3.87-3.88V24.2a5.82 5.82 0 0 0-5.81-5.82Zm-29.06-1.94a7.75 7.75 0 1 1 0-15.5 7.75 7.75 0 0 1 0 15.5Zm0-11.63a3.87 3.87 0 1 0 0 7.75 3.87 3.87 0 0 0 0-7.75Zm23.24 11.63a7.75 7.75 0 1 1 0-15.5 7.75 7.75 0 0 1 0 15.5Zm0-11.63a3.87 3.87 0 1 0 0 7.75 3.87 3.87 0 0 0 0-7.75Z"/></svg>