<svg xmlns="http://www.w3.org/2000/svg" fill="none" viewBox="0 0 62 62"><path fill="#50A359" d="M40.69.06 62 10.72v23.76l-3.88-1.94v-17.5l-15.5 7.76v7.8l-3.87 1.94V22.8l-15.5-7.75v6.87l-3.88-1.94v-9.26L40.7.06Zm0 19.38 5.36-2.7-14.02-8.02-6.39 3.2 15.05 7.52Zm9.53-4.76 5.51-2.75L40.7 4.39l-4.51 2.27 14.04 8.02Zm-15.34 19.8L31 36.42v-.03L19.37 42.2v13.78L31 50.13v4.36l-13.56 6.78L0 52.52V32.06l17.44-8.72 17.43 8.72v2.42ZM15.5 55.98V42.2L3.87 36.4v13.74l11.63 5.85Zm1.94-17.14 11.17-5.57-11.17-5.6-11.17 5.6 11.17 5.57Zm17.43-.03 13.57-6.78L62 38.8v15.95l-13.56 6.79-13.56-6.79V38.81ZM46.5 56.25V47l-7.75-3.87v9.23l7.75 3.88Zm11.63-3.88v-9.23l-7.76 3.87v9.24l7.76-3.88Zm-9.7-8.72 7.3-3.66-7.3-3.63-7.29 3.63 7.3 3.66Z"/></svg>