<svg xmlns="http://www.w3.org/2000/svg" fill="none" viewBox="0 0 56 56"><path stroke="#50A359" stroke-linecap="round" stroke-linejoin="round" stroke-width="4" d="m26.5 36.19 15.06 15.06a6.85 6.85 0 0 0 9.69-9.69L36.07 26.38m-9.57 9.8 6.45-7.82a6.28 6.28 0 0 1 3.12-1.98c1.42-.42 3-.48 4.5-.36a11.62 11.62 0 0 0 11.6-16.37l-8.47 8.47a7.76 7.76 0 0 1-5.81-5.81l8.46-8.47a11.62 11.62 0 0 0-16.37 11.6c.24 2.77-.18 5.84-2.33 7.61l-.27.22M26.5 36.2 14.48 50.8a6.58 6.58 0 1 1-9.27-9.26l17.66-14.55-10.6-10.6H8.61l-5.8-9.7 3.87-3.87 9.68 5.81v3.64l11.01 11.01-4.5 3.71m21.59 17.49-6.78-6.78M9.57 46.4h.02v.02h-.02v-.02Z"/></svg>