<svg xmlns="http://www.w3.org/2000/svg" fill="none" viewBox="0 0 165 50"><path fill="#fff" d="M18.66 18.5c0 1.53-.55 2.77-1.64 3.7a7.87 7.87 0 0 1-4.16 1.77v.1c2.1.2 3.7.8 4.8 1.75a4.55 4.55 0 0 1 1.7 3.68c0 1.33-.36 2.51-1.09 3.56a7.06 7.06 0 0 1-3.23 2.4c-1.43.57-3.2.86-5.31.86-1.73 0-3.27-.1-4.61-.32a15.58 15.58 0 0 1-3.46-.93v-4.06c.67.32 1.41.6 2.24.83a19.18 19.18 0 0 0 4.9.67c2.03 0 3.49-.29 4.38-.86a2.82 2.82 0 0 0 1.38-2.5c0-1.09-.66-1.88-1.98-2.37a15.5 15.5 0 0 0-5.35-.76H5.1v-3.78H7c1.81 0 3.22-.12 4.22-.35 1-.24 1.7-.58 2.11-1.03.4-.44.61-.98.61-1.6 0-.79-.35-1.4-1.05-1.85-.69-.47-1.72-.7-3.1-.7-1.18 0-2.3.16-3.34.5-1.02.35-1.98.8-2.88 1.35l-2.1-3.23a15.45 15.45 0 0 1 8.98-2.5c1.73 0 3.2.25 4.42.74a6.34 6.34 0 0 1 2.78 2.01c.67.84 1 1.8 1 2.92Zm9.2 6.94c0 .36-.03.81-.07 1.34a44.3 44.3 0 0 1-.1 1.64 24.34 24.34 0 0 1-.19 2.36l8.07-12.25h5.72V36h-4.6v-6.98c0-.57.02-1.2.06-1.88a182.4 182.4 0 0 1 .26-3.36L28.97 36h-5.72V18.53h4.6v6.91ZM65.28 36h-5.5l-8.3-11.58V36h-4.83V13.15h4.83v11.07l8.2-11.07h5.15l-8.32 10.98L65.29 36Zm1.69-7.3v-3.6h8.41v3.61h-8.41ZM93.96 36l-1.67-5.44h-8.32L82.31 36h-5.22l8.07-22.94h5.92L99.18 36h-5.22Zm-4.48-14.82a121.57 121.57 0 0 0-.93-3.07c-.17-.57-.31-1.08-.42-1.5a99.49 99.49 0 0 1-1.31 4.58l-1.63 5.3h5.95l-1.66-5.3Zm21.34 1.32v-7.07h1.46l2.11 3.62 2.09-3.62h1.42v7.07h-1.15v-5.51l-2.13 3.67h-.52l-2.13-3.67v5.51h-1.15Zm10.9-5.36c.41 0 .78.07 1.1.2.32.13.6.32.81.56.23.23.4.52.51.85a3.56 3.56 0 0 1 0 2.23 2.15 2.15 0 0 1-1.31 1.4c-.32.13-.7.19-1.12.19a3 3 0 0 1-1.1-.19 2.33 2.33 0 0 1-.82-.55 2.46 2.46 0 0 1-.49-.86 3.81 3.81 0 0 1 0-2.22 2.3 2.3 0 0 1 1.31-1.41c.32-.13.69-.2 1.1-.2Zm0 4.44a1.28 1.28 0 0 0 1.1-.5c.12-.15.2-.33.26-.54a2.4 2.4 0 0 0 0-1.34 1.4 1.4 0 0 0-.26-.55 1.16 1.16 0 0 0-.45-.36c-.18-.09-.4-.13-.66-.13-.25 0-.47.04-.66.13-.18.09-.33.2-.45.36-.11.15-.2.34-.26.55a2.64 2.64 0 0 0 0 1.34c.06.2.15.39.26.54.12.15.27.28.45.37.19.09.4.13.66.13Zm5.95.99a3 3 0 0 1-1.11-.19 2.24 2.24 0 0 1-.8-.55 2.4 2.4 0 0 1-.46-.85 3.82 3.82 0 0 1 0-2.2 2.4 2.4 0 0 1 1.3-1.43 3.1 3.1 0 0 1 1.9-.11c.26.06.48.16.68.31a2.06 2.06 0 0 1 .79 1.32h-1.18a.83.83 0 0 0-.4-.52 1.23 1.23 0 0 0-.71-.19 1.25 1.25 0 0 0-1.09.52c-.12.16-.2.35-.25.56a2.92 2.92 0 0 0 0 1.31c.06.2.14.39.26.54.12.15.27.27.45.36.18.09.4.13.65.13.3 0 .54-.07.74-.2.2-.13.32-.31.38-.53h1.17a2.05 2.05 0 0 1-.82 1.32c-.21.14-.44.24-.7.31-.25.06-.52.09-.8.09Zm3.3-.07v-5.27h1.12v2.15h.81l1.35-2.15h1.3l-1.67 2.51 1.8 2.76h-1.32l-1.39-2.13h-.88v2.13h-1.13Zm5.35-5.27h2.25c.24 0 .47.01.71.04.24.02.46.08.65.17.2.1.36.23.48.41.13.17.2.41.2.71 0 .23-.05.45-.16.65-.1.2-.27.36-.5.49.31.09.55.24.7.46.15.21.22.47.22.77a1.4 1.4 0 0 1-.62 1.22c-.18.12-.4.21-.65.27-.24.05-.5.08-.78.08h-2.5v-5.27Zm1.15.95v1.21h1.16c.17 0 .32-.03.44-.07a.7.7 0 0 0 .32-.19c.09-.09.13-.21.13-.37 0-.14-.03-.25-.1-.32a.56.56 0 0 0-.23-.18.94.94 0 0 0-.32-.07l-.32-.01h-1.08Zm1.16 3.36c.14 0 .27 0 .4-.02a.9.9 0 0 0 .34-.09.8.8 0 0 0 .26-.2c.07-.09.1-.2.1-.34 0-.25-.08-.42-.24-.51a1.14 1.14 0 0 0-.57-.13h-1.45v1.29h1.16Zm6.7.31c-.18.25-.4.43-.7.55a2.8 2.8 0 0 1-1.73.07 1.52 1.52 0 0 1-1.01-.81c-.1-.2-.14-.44-.14-.7 0-.29.06-.53.17-.73.11-.2.27-.37.46-.5a3.22 3.22 0 0 1 1.54-.38h1.35c0-.39-.09-.69-.26-.9-.17-.21-.48-.32-.91-.33-.25 0-.47.04-.66.13a.67.67 0 0 0-.36.43h-1.17a1.57 1.57 0 0 1 .79-1.19c.2-.13.43-.22.68-.27a3.68 3.68 0 0 1 1.67.05 1.75 1.75 0 0 1 1.2 1.3c.08.33.12.7.12 1.09v2.84h-1l-.04-.65Zm-.06-1.69h-1.1c-.2 0-.39.02-.58.05a1 1 0 0 0-.5.21c-.13.1-.2.26-.2.47 0 .25.09.45.27.58.19.13.41.19.68.19.2 0 .4-.03.57-.08.18-.05.33-.14.46-.26.13-.13.22-.28.29-.47.07-.2.1-.42.1-.69Zm3.04 2.42a.8.8 0 0 1-.5-.2.69.69 0 0 1-.19-.51c0-.23.08-.41.22-.53a.73.73 0 0 1 .5-.19h.05c.3.02.5.13.62.32.12.2.17.4.17.61v.1c0 .2-.03.38-.1.57a2.37 2.37 0 0 1-.7.97 1.4 1.4 0 0 1-.49.27l-.3-.41c.16-.11.3-.26.44-.43.14-.17.23-.36.28-.57Zm-35.37 11.99a3 3 0 0 1-1.11-.19 2.24 2.24 0 0 1-.79-.55 2.6 2.6 0 0 1-.47-.85 3.82 3.82 0 0 1 .01-2.2 2.4 2.4 0 0 1 1.3-1.43 3.1 3.1 0 0 1 1.9-.11 1.95 1.95 0 0 1 1.17.85c.14.21.24.47.29.78h-1.18a.83.83 0 0 0-.39-.52c-.2-.13-.43-.19-.72-.19a1.25 1.25 0 0 0-1.09.52c-.11.16-.2.35-.25.56a2.92 2.92 0 0 0 .01 1.31c.05.2.14.39.25.54.12.15.27.27.45.36.18.09.4.13.65.13.3 0 .55-.07.74-.2.2-.13.33-.31.38-.53h1.17a2.02 2.02 0 0 1-.82 1.32c-.2.14-.44.24-.69.31a3.5 3.5 0 0 1-.81.09Zm8.17-.07h-1.16v-5.44h-1.44v-.79c.4-.01.74-.08 1.04-.19.3-.12.54-.34.71-.65h.85v7.07Zm5.6-3.38c-.1.15-.22.28-.35.39a2.1 2.1 0 0 1-.93.42 2.75 2.75 0 0 1-1.44-.1 2.07 2.07 0 0 1-1.2-1.16 2.6 2.6 0 0 1-.17-.95 2.23 2.23 0 0 1 1.51-2.19 2.84 2.84 0 0 1 2.27.16c.37.22.65.5.84.84.2.33.34.72.42 1.15a6.74 6.74 0 0 1 .02 2.62 3.6 3.6 0 0 1-.45 1.16c-.2.33-.49.6-.84.81a3.28 3.28 0 0 1-2.17.2 2.1 2.1 0 0 1-1.25-.86 1.92 1.92 0 0 1-.3-.78h1.2c.09.24.24.42.47.54a1.65 1.65 0 0 0 1.25.09c.15-.06.29-.14.4-.23a1.43 1.43 0 0 0 .52-.75 2 2 0 0 0 .17-.67l.03-.69Zm-2.93-1.47c0 .4.12.73.35.96.24.23.56.35.96.35a1.4 1.4 0 0 0 .94-.32 1.26 1.26 0 0 0 .4-.88c0-.19-.03-.36-.1-.53a1.22 1.22 0 0 0-.25-.43 1.28 1.28 0 0 0-.96-.41c-.39 0-.7.11-.96.34-.25.23-.37.53-.38.92Zm9.12 1.47c-.1.15-.22.28-.35.39a2.1 2.1 0 0 1-.93.42 2.74 2.74 0 0 1-1.44-.1 2.07 2.07 0 0 1-1.2-1.16 2.6 2.6 0 0 1-.17-.95 2.25 2.25 0 0 1 1.51-2.19 2.84 2.84 0 0 1 2.27.16c.37.22.65.5.84.84.2.33.34.72.42 1.15a6.74 6.74 0 0 1 .02 2.62 3.4 3.4 0 0 1-.45 1.16c-.2.33-.49.6-.84.81-.35.2-.8.3-1.33.3a2.55 2.55 0 0 1-1.55-.42 2.1 2.1 0 0 1-.54-.54 1.93 1.93 0 0 1-.29-.78h1.19c.09.24.24.42.47.54a1.65 1.65 0 0 0 1.25.09c.15-.06.29-.14.41-.23a1.62 1.62 0 0 0 .52-.75c.09-.22.14-.44.16-.67l.03-.69Zm-2.93-1.47c0 .4.12.73.35.96.24.23.56.35.96.35a1.4 1.4 0 0 0 .94-.32 1.23 1.23 0 0 0 .4-.88c0-.19-.03-.36-.09-.53a1.2 1.2 0 0 0-.26-.43 1.28 1.28 0 0 0-.96-.41c-.39 0-.7.11-.96.34-.25.23-.37.53-.38.92Zm6.74 2.21.53-.46c.2-.17.39-.34.56-.52.18-.19.33-.39.44-.6.12-.21.18-.44.18-.69 0-.36-.1-.65-.32-.87-.21-.22-.52-.33-.92-.33-.32 0-.59.07-.8.22a.92.92 0 0 0-.42.59h-1.14c.03-.3.11-.58.25-.82.15-.24.33-.44.55-.59.22-.15.46-.26.72-.33a3.44 3.44 0 0 1 1.81.02c.28.09.53.22.73.39a2.04 2.04 0 0 1 .7 1.58 2.57 2.57 0 0 1-.42 1.42 5.9 5.9 0 0 1-.95 1.05l-.64.54-.49.4a50.96 50.96 0 0 0-.74.61h3.23v1.03h-4.8v-.95l1.94-1.69Zm6.63 2.64v-5.27h3.8v.99h-2.66v4.28h-1.14Zm6.88-5.36c.42 0 .79.07 1.1.2.33.13.6.32.82.56.22.23.4.52.5.85a3.47 3.47 0 0 1 0 2.23 2.15 2.15 0 0 1-1.31 1.4 2.9 2.9 0 0 1-1.11.19 3 3 0 0 1-1.11-.19 2.33 2.33 0 0 1-.81-.55 2.46 2.46 0 0 1-.5-.86 3.82 3.82 0 0 1 .01-2.22 2.3 2.3 0 0 1 1.3-1.41 3 3 0 0 1 1.1-.2Zm0 4.44c.26 0 .48-.04.66-.13.18-.1.33-.22.45-.37s.2-.33.26-.54a2.4 2.4 0 0 0 0-1.34c-.06-.21-.14-.4-.26-.55a1.16 1.16 0 0 0-.45-.36c-.18-.09-.4-.13-.66-.13s-.48.04-.66.13c-.18.09-.33.2-.45.36-.12.15-.2.34-.26.55a2.64 2.64 0 0 0 0 1.34 1.36 1.36 0 0 0 .71.91c.18.09.4.13.66.13Zm4.09-2.47a22 22 0 0 0 .04-1.88h4.06v4.3h.7v2.51h-1.12V34.5h-3.6v1.54h-1.1v-2.51c.19 0 .35-.06.47-.18a.96.96 0 0 0 .28-.42c.04-.1.08-.25.12-.43a7.99 7.99 0 0 0 .15-1.39Zm2.97-.89h-1.88a26.92 26.92 0 0 0-.06 1.59l-.05.41a3.4 3.4 0 0 1-.16.89c-.04.15-.1.29-.19.42h2.34v-3.31Zm6.02 3.63c-.18.25-.4.43-.7.55a2.8 2.8 0 0 1-1.73.07 1.53 1.53 0 0 1-1.01-.81c-.1-.2-.14-.44-.14-.7a1.4 1.4 0 0 1 .63-1.23 3.22 3.22 0 0 1 1.54-.38h1.35c0-.39-.09-.69-.26-.9-.18-.21-.48-.32-.91-.33-.26 0-.48.04-.66.13a.67.67 0 0 0-.36.43h-1.17a1.57 1.57 0 0 1 .79-1.19c.2-.13.43-.22.68-.27a3.69 3.69 0 0 1 1.67.05 1.74 1.74 0 0 1 1.2 1.3c.08.33.12.7.12 1.09v2.84h-1l-.04-.65Zm-.06-1.69h-1.1c-.2 0-.39.02-.58.05a1 1 0 0 0-.5.21c-.14.1-.2.26-.2.47 0 .25.09.45.27.58.18.13.41.19.68.19.2 0 .4-.03.57-.08.18-.05.33-.14.46-.26.12-.13.22-.28.29-.47.07-.2.1-.42.1-.69Z"/></svg>